<svg version="1.2" xmlns="http://www.w3.org/2000/svg" viewBox="0 0 512 512" width="512" height="512">
	<title>money-svg</title>
	<style>
		tspan { white-space:pre } 
		.s0 { fill: #ffdc64 } 
		.s1 { fill: #ffc850 } 
		.s2 { fill: #fff082 } 
		.s3 { fill: #e7b452 } 
	</style>
	<g id="svg__coin">
		<path id="Layer" class="s0" d="m256 512c-141.6 0-256-114.4-256-256 0-141.6 114.4-256 256-256 141.6 0 256 114.4 256 256 0 141.6-114.4 256-256 256z"/>
		<path id="Layer" class="s1" d="m256 476.7c-122 0-220.7-98.7-220.7-220.7 0-122 98.7-220.7 220.7-220.7 122 0 220.7 98.7 220.7 220.7 0 122-98.7 220.7-220.7 220.7z"/>
		<path id="Layer" class="s2" d="m256 450.2c-107.4 0-194.2-86.8-194.2-194.2 0-107.4 86.8-194.2 194.2-194.2 107.4 0 194.2 86.8 194.2 194.2 0 107.4-86.8 194.2-194.2 194.2z"/>
		<g id="text svg">
			<path id="200" fill-rule="evenodd" class="s3" d="m198.1 318h-62.3v-14.2q13.3-16.8 22.2-27.8 8.9-11.2 14.3-18.9 5.3-7.8 7.4-14.2 2.4-6.6 2.4-13.9 0-14.1-5.2-19.9-5-5.9-14.4-5.9h-24.9v-8q4.1-1.4 11.4-2.5 7.3-1.1 15.3-1.1 17.4 0 25.6 8.7 8.2 8.6 8.2 28.7 0 8.7-2.9 16.4-2.6 7.5-8.2 15.8-5.5 8.4-14 19.1-8.6 10.5-20.3 25.2h45.4zm50.7 1.8q-11 0-19.4-5.5-8.2-5.7-12.6-19.6-4.5-14-4.5-39 0-24.9 4.5-38.8 4.4-14 12.6-19.5 8.4-5.7 19.4-5.7 11.2 0 19.4 5.7 8.2 5.5 12.7 19.5 4.4 13.9 4.4 38.8 0 25-4.4 39-4.5 13.9-12.7 19.6-8.2 5.5-19.4 5.5zm0-10.7q3.7 0 7.3-2.3 3.6-2.5 6.6-8.3 3-5.9 4.8-16.2 1.8-10.5 1.8-26.6 0-16-1.8-26.3-1.8-10.5-4.8-16.4-3-5.9-6.6-8.2-3.6-2.5-7.3-2.5-3.7 0-7.3 2.5-3.5 2.3-6.6 8.2-3 5.9-4.8 16.4-1.8 10.3-1.8 26.3 0 16.1 1.8 26.6 1.8 10.3 4.8 16.2 3.1 5.8 6.6 8.3 3.6 2.3 7.3 2.3zm90.8 10.7q-11 0-19.4-5.5-8.2-5.7-12.7-19.6-4.4-14-4.4-39 0-24.9 4.4-38.8 4.5-14 12.7-19.5 8.4-5.7 19.4-5.7 11.2 0 19.4 5.7 8.2 5.5 12.6 19.5 4.5 13.9 4.5 38.8 0 25-4.5 39-4.4 13.9-12.6 19.6-8.2 5.5-19.4 5.5zm0-10.7q3.7 0 7.3-2.3 3.5-2.5 6.6-8.3 3-5.9 4.8-16.2 1.8-10.5 1.8-26.6 0-16-1.8-26.3-1.8-10.5-4.8-16.4-3.1-5.9-6.6-8.2-3.6-2.5-7.3-2.5-3.7 0-7.3 2.5-3.6 2.3-6.6 8.2-3 5.9-4.8 16.4-1.8 10.3-1.8 26.3 0 16.1 1.8 26.6 1.8 10.3 4.8 16.2 3 5.8 6.6 8.3 3.6 2.3 7.3 2.3z"/>
		</g>
	</g>
</svg>