<!DOCTYPE svg PUBLIC "-//W3C//DTD SVG 1.1//EN" "http://www.w3.org/Graphics/SVG/1.1/DTD/svg11.dtd">
<!-- Uploaded to: SVG Repo, www.svgrepo.com, Transformed by: SVG Repo Mixer Tools -->
<svg height="800px" width="800px" version="1.1" id="Layer_1" xmlns="http://www.w3.org/2000/svg" xmlns:xlink="http://www.w3.org/1999/xlink" viewBox="0 0 512 512" xml:space="preserve" fill="#000000">
<g id="SVGRepo_bgCarrier" stroke-width="0"/>
<g id="SVGRepo_iconCarrier"> <circle style="fill:#FFDC64;" cx="256" cy="256" r="256"/> <circle style="fill:#FFC850;" cx="256" cy="256" r="220.69"/> <circle style="fill:#FFF082;" cx="256" cy="256" r="194.207"/> <path style="fill:#E7B452;" d="M264.828,154.483c22.146,0,42.733,11.009,55.069,29.449c4.077,6.087,12.301,7.69,18.37,3.647 c6.078-4.07,7.706-12.294,3.647-18.37C324.647,143.405,295.837,128,264.828,128c-50.948,0-83.862,32.914-83.862,83.862 c0,13.639,2.561,26.855,5.603,39.724h-10.017c-7.31,0-13.241,5.931-13.241,13.241c0,7.31,5.931,13.241,13.241,13.241h16.385 c6.344,28.765,6.541,51.212-24.083,73.086c-4.681,3.345-6.673,9.336-4.914,14.819c1.759,5.483,6.852,9.198,12.611,9.198h150.069 c7.31,0,13.241-5.931,13.241-13.241s-5.931-13.241-13.241-13.241H208.957c16.233-22.895,15.516-47.253,11.005-70.621h44.866 c7.31,0,13.241-5.931,13.241-13.241c0-7.31-5.931-13.241-13.241-13.241H213.82c-3.389-13.749-6.371-26.871-6.371-39.724 C207.448,175.396,228.362,154.483,264.828,154.483z"/> </g>
</svg>